<svg width="503" height="133" viewBox="0 0 503 133" fill="none" xmlns="http://www.w3.org/2000/svg">
<path d="M459.2 0C435.199 0 415.763 19.4666 415.763 43.4564C415.763 67.4461 435.204 86.9127 459.2 86.9127C483.196 86.9127 502.62 67.4461 502.62 43.4564C502.62 19.4666 483.179 0 459.2 0ZM459.2 65.3033C447.134 65.3033 437.346 55.5276 437.346 43.4564C437.346 31.3852 447.14 21.6094 459.2 21.6094C471.26 21.6094 481.037 31.3852 481.037 43.4564C481.037 55.5276 471.243 65.3033 459.2 65.3033Z" fill="#150958"/>
<path d="M132.893 0C108.892 0 89.4565 19.4666 89.4565 43.4564C89.4565 67.4461 108.897 86.9127 132.893 86.9127C156.889 86.9127 176.313 67.4461 176.313 43.4564C176.313 19.4666 156.872 0 132.893 0ZM132.893 65.3033C120.828 65.3033 111.039 55.5276 111.039 43.4564C111.039 31.3852 120.833 21.6094 132.893 21.6094C144.954 21.6094 154.73 31.3852 154.73 43.4564C154.73 55.5276 144.937 65.3033 132.893 65.3033Z" fill="#150958"/>
<path d="M359.815 0C335.813 0 316.378 19.4666 316.378 43.4564C316.378 67.4461 335.819 86.9127 359.815 86.9127C383.811 86.9127 403.235 67.4461 403.235 43.4564C403.235 19.4666 383.794 0 359.815 0ZM359.815 65.3033C347.749 65.3033 337.961 55.5276 337.961 43.4564C337.961 31.3852 347.755 21.6094 359.815 21.6094C371.875 21.6094 381.652 31.3852 381.652 43.4564C381.652 55.5276 371.858 65.3033 359.815 65.3033Z" fill="#150958"/>
<path d="M285.165 9.57137H301.984C301.808 14.0663 298.112 17.6509 293.574 17.6509C289.036 17.6509 285.34 14.0663 285.165 9.57137Z" fill="#150958"/>
<path d="M302.826 15.9521V87.1807C292.609 87.1807 284.324 78.892 284.324 68.6696V15.9521C286.381 18.8073 289.766 20.6675 293.575 20.6675C297.384 20.6675 300.769 18.8073 302.826 15.9521Z" fill="#150958"/>
<path d="M302.006 9.21784C302.006 9.33092 302.006 9.46096 301.984 9.57404C301.809 14.0689 298.112 17.6536 293.574 17.6536C289.036 17.6536 285.34 14.0689 285.165 9.57404C285.142 9.46096 285.142 9.33092 285.142 9.21784C285.142 4.57028 288.929 0.782135 293.574 0.782135C298.22 0.782135 302.006 4.57028 302.006 9.21784Z" fill="white"/>
<path d="M224.288 87.2113C228.459 79.9856 232.381 73.3026 236.134 66.5235C236.501 65.8563 236.071 64.4767 235.602 63.6626C223.927 43.2687 212.217 22.8918 200.417 2.57149C199.857 1.61031 198.495 0.801807 197.387 0.779191C189.967 0.626534 182.541 0.700027 174.352 0.700027C191.08 29.6822 207.537 58.1895 224.288 87.2113Z" fill="#150958"/>
<path d="M211.584 0.711742C222.169 19.0475 232.404 36.7671 242.91 54.9615C247.069 47.7923 251.014 41.098 254.789 34.3189C255.162 33.6461 254.806 32.2778 254.354 31.475C248.866 21.8349 243.334 12.2232 237.688 2.67367C237.151 1.76338 235.789 0.813504 234.794 0.790888C227.363 0.632577 219.92 0.706082 211.584 0.706082V0.711742Z" fill="#D41F37"/>
<path d="M274.184 0.791557H248.889C253.138 8.18129 257.196 15.2488 261.491 22.712C265.752 15.3505 269.805 8.35656 274.184 0.791557Z" fill="#D41F37"/>
<path d="M363.613 132.859C361.714 133.034 359.798 133.045 357.894 132.898C356.119 132.762 354.362 132.615 352.627 132.304C350.451 131.914 348.303 131.208 346.241 130.399C341.267 128.448 336.644 125.865 332.513 122.438C327.478 118.266 323.477 113.335 321.086 107.19C320.662 106.104 320.188 105.03 319.826 103.927C318.34 99.3702 320.826 93.8236 324.935 91.5225C328.134 89.7302 331.355 89.5775 334.621 90.8157C337.633 91.9578 339.606 94.2816 340.923 97.2499C342.324 100.41 344.121 103.339 346.512 105.9C347.529 106.992 348.659 107.896 349.88 108.66C352.604 110.367 355.791 111.21 359.001 111.385C361.742 111.537 364.483 111.424 367.128 110.616C369.451 109.909 371.615 108.767 373.458 107.105C376.165 104.657 378.126 101.677 379.703 98.4146C380.341 97.0916 380.963 95.7234 381.839 94.5643C384.959 90.4199 389.598 88.9782 394.442 90.6291C398.087 91.873 400.432 94.5586 401.512 98.3977C402.365 101.434 401.5 104.131 400.398 106.805C396.651 115.88 390.175 122.461 381.692 127.25C378.968 128.788 376.12 129.981 373.221 131.072C371.926 131.558 369.756 132.135 368.383 132.333C366.806 132.559 365.218 132.717 363.636 132.864L363.613 132.859Z" fill="#150958"/>
<path d="M0.186472 40.2447C0.186472 31.9956 1.38457 25.2504 3.78642 20.0148C6.18828 14.7793 9.26263 10.6858 13.0208 7.7288C16.7734 4.77177 21.0233 2.77026 25.7591 1.72427C30.495 0.678291 35.2705 0.152473 40.0686 0.152473C44.8666 0.152473 49.4838 0.678291 54.2875 1.72427C59.0856 2.77026 63.4259 4.77177 67.3027 7.7288C71.1796 10.6858 74.3218 14.7793 76.718 20.0148C79.1199 25.2504 80.318 31.9899 80.318 40.2447L81.0583 86.7938C73.5475 86.7938 67.7662 85.1937 63.7028 81.9936C59.6394 78.7934 57.6105 73.5579 57.6105 66.2925L57.7971 40.2447C57.7971 35.0713 57.2715 30.9157 56.226 27.7777C55.1805 24.6398 53.7959 22.1747 52.0722 20.388C50.3485 18.6014 48.4383 17.4027 46.3473 16.7864C44.2506 16.1702 42.1596 15.8648 40.0686 15.8648C37.9776 15.8648 35.9148 16.1758 33.8859 16.7864C31.857 17.4027 30.009 18.607 28.3475 20.388C26.686 22.1747 25.3296 24.6341 24.2841 27.7777C23.2386 30.9157 22.713 35.0713 22.713 40.2447V68.8764C22.8317 72.5684 22.9278 75.5876 22.9899 77.9284C23.0521 80.2691 23.1425 82.118 23.2669 83.4693C23.3855 84.9449 23.5099 86.0531 23.6342 86.7938C15.9991 86.7938 10.1556 85.1937 6.09218 81.9936C2.02881 78.7934 0 73.5579 0 66.2925L0.186472 40.2447Z" fill="#150958"/>
<path d="M302.006 9.21784C302.006 9.33092 302.006 9.46096 301.984 9.57404C301.809 14.0689 298.112 17.6536 293.574 17.6536C289.036 17.6536 285.34 14.0689 285.165 9.57404C285.142 9.46096 285.142 9.33092 285.142 9.21784C285.142 4.57028 288.929 0.782135 293.574 0.782135C298.22 0.782135 302.006 4.57028 302.006 9.21784Z" fill="#150958"/>
<path d="M404.19 17.6452C408.843 17.6452 412.616 13.8709 412.616 9.21513C412.616 4.55934 408.843 0.785088 404.19 0.785088C399.536 0.785088 395.763 4.55934 395.763 9.21513C395.763 13.8709 399.536 17.6452 404.19 17.6452Z" fill="#150958"/>
</svg>
