<svg width="165" height="44" viewBox="0 0 165 44" fill="none" xmlns="http://www.w3.org/2000/svg">
<path d="M150.75 0C142.873 0 136.488 6.4382 136.488 14.3798C136.488 22.3213 142.868 28.7596 150.75 28.7596C158.631 28.7596 165.006 22.3213 165.006 14.3798C165.006 6.4382 158.626 0 150.75 0ZM150.75 21.606C146.792 21.606 143.577 18.3701 143.577 14.3798C143.577 10.3894 146.792 7.15357 150.75 7.15357C154.707 7.15357 157.917 10.3894 157.917 14.3798C157.917 18.3701 154.702 21.606 150.75 21.606Z" fill="white"/>
<path d="M43.6348 0C35.7585 0 29.373 6.4382 29.373 14.3798C29.373 22.3213 35.7528 28.7596 43.6348 28.7596C51.5168 28.7596 57.8911 22.3213 57.8911 14.3798C57.8911 6.4382 51.5057 0 43.6348 0ZM43.6348 21.606C39.6772 21.606 36.4623 18.3701 36.4623 14.3798C36.4623 10.3894 39.6772 7.15357 43.6348 7.15357C47.5924 7.15357 50.8017 10.3894 50.8017 14.3798C50.8017 18.3701 47.5869 21.606 43.6348 21.606Z" fill="white"/>
<path d="M118.123 0C110.247 0 103.861 6.4382 103.861 14.3798C103.861 22.3213 110.241 28.7596 118.123 28.7596C126.005 28.7596 132.379 22.3213 132.379 14.3798C132.379 6.4382 126 0 118.123 0ZM118.123 21.606C114.165 21.606 110.951 18.3701 110.951 14.3798C110.951 10.3894 114.165 7.15357 118.123 7.15357C122.081 7.15357 125.29 10.3894 125.29 14.3798C125.29 18.3701 122.075 21.606 118.123 21.606Z" fill="white"/>
<path d="M93.6191 3.16797H99.1399C99.0844 4.65456 97.8705 5.83937 96.3794 5.83937C94.8885 5.83937 93.6746 4.65456 93.6191 3.16797Z" fill="#150958"/>
<path d="M99.4148 5.27539V28.843C96.0613 28.843 93.3398 26.099 93.3398 22.7178V5.27539C94.0161 6.21989 95.1245 6.83465 96.3773 6.83465C97.63 6.83465 98.7386 6.21989 99.4148 5.27539Z" fill="white"/>
<path d="M99.1509 3.05048C99.1509 3.08961 99.1509 3.12873 99.1454 3.16785C99.0899 4.65445 97.8761 5.83926 96.385 5.83926C94.894 5.83926 93.6801 4.65445 93.6247 3.16785C93.6191 3.12873 93.6191 3.08961 93.6191 3.05048C93.6191 1.5136 94.8607 0.261719 96.385 0.261719C97.9093 0.261719 99.1509 1.5136 99.1509 3.05048Z" fill="white"/>
<path d="M73.6363 28.8552C75.0054 26.4634 76.2914 24.2501 77.5274 22.0091C77.6494 21.7911 77.5053 21.3328 77.3501 21.0645C73.5199 14.319 69.6731 7.579 65.7987 0.855767C65.6159 0.537211 65.1669 0.268952 64.8065 0.263363C62.3733 0.213065 59.9343 0.235419 57.2461 0.235419C62.739 9.82567 68.1378 19.2538 73.6419 28.8552H73.6363Z" fill="white"/>
<path d="M69.4629 0.234375C72.9382 6.29814 76.2973 12.1663 79.745 18.1853C81.1085 15.8102 82.4056 13.597 83.6471 11.3559C83.7691 11.1324 83.6526 10.6797 83.503 10.417C81.7016 7.22586 79.8836 4.04589 78.0322 0.888255C77.8548 0.586465 77.4115 0.273496 77.0844 0.267908C74.6455 0.217609 72.2011 0.239965 69.4629 0.239965V0.234375Z" fill="#D41F37"/>
<path d="M90.0161 0.261719H81.7129C83.1097 2.70399 84.44 5.04567 85.8479 7.51588C87.2447 5.0792 88.575 2.76546 90.0161 0.261719Z" fill="#D41F37"/>
<path d="M119.37 43.955C118.744 44.0109 118.118 44.0165 117.491 43.9719C116.909 43.9271 116.333 43.8768 115.762 43.7763C115.047 43.6477 114.343 43.4129 113.667 43.1447C112.037 42.5019 110.518 41.647 109.16 40.5125C107.509 39.132 106.195 37.5 105.408 35.4658C105.269 35.1081 105.114 34.7504 104.992 34.3872C104.504 32.8782 105.319 31.0451 106.672 30.285C107.719 29.6926 108.778 29.6423 109.853 30.0503C110.84 30.4303 111.488 31.1961 111.921 32.1796C112.381 33.2247 112.968 34.1972 113.755 35.041C114.088 35.4043 114.459 35.7005 114.858 35.952C115.751 36.5165 116.798 36.7959 117.852 36.8518C118.75 36.902 119.653 36.863 120.518 36.5947C121.283 36.36 121.992 35.9856 122.596 35.4322C123.483 34.6219 124.126 33.6382 124.647 32.5596C124.858 32.1238 125.063 31.6711 125.346 31.2854C126.371 29.9161 127.895 29.4355 129.481 29.9832C130.678 30.3969 131.448 31.2798 131.803 32.5541C132.086 33.56 131.803 34.4543 131.437 35.3373C130.206 38.3384 128.078 40.518 125.296 42.0995C124.403 42.6082 123.467 43.005 122.513 43.3626C122.086 43.5247 121.377 43.7148 120.928 43.7818C120.412 43.8545 119.891 43.9104 119.37 43.955Z" fill="white"/>
<path d="M0.0665143 13.3128C0.0665143 10.5855 0.460057 8.35562 1.24714 6.62312C2.03423 4.89062 3.04304 3.53814 4.27909 2.56011C5.50961 1.58208 6.9064 0.922622 8.46395 0.576122C10.016 0.224032 11.5846 0.0507812 13.1587 0.0507812C14.7329 0.0507812 16.2517 0.224032 17.8258 0.570532C19.4 0.917033 20.8245 1.57651 22.0995 2.55453C23.3743 3.53255 24.4052 4.88503 25.1923 6.61753C25.9794 8.35003 26.373 10.5799 26.373 13.3072L26.6168 28.7097C24.1502 28.7097 22.2546 28.1788 20.9188 27.1225C19.583 26.0663 18.9178 24.3338 18.9178 21.925L18.9788 13.3072C18.9788 11.5971 18.8069 10.2222 18.4633 9.18275C18.1196 8.14325 17.6651 7.3273 17.0998 6.74048C16.5344 6.14807 15.9081 5.75128 15.2207 5.55009C14.5334 5.34888 13.8461 5.2427 13.1587 5.2427C12.4715 5.2427 11.7952 5.34331 11.1301 5.55009C10.4649 5.75687 9.85521 6.15366 9.31201 6.74048C8.76881 7.33288 8.31985 8.14884 7.97618 9.18275C7.63252 10.2222 7.4607 11.5971 7.4607 13.3072V22.7801C7.49949 24.0041 7.53275 24.9989 7.54938 25.7756C7.57155 26.5525 7.59926 27.1617 7.63806 27.6088C7.67687 28.095 7.72121 28.4639 7.76002 28.7097C5.25464 28.7097 3.33681 28.1788 2.00097 27.1225C0.665144 26.0663 0 24.3338 0 21.925L0.0609715 13.3072L0.0665143 13.3128Z" fill="white"/>
<path d="M99.1509 3.05048C99.1509 3.08961 99.1509 3.12873 99.1454 3.16785C99.0899 4.65445 97.8761 5.83926 96.385 5.83926C94.894 5.83926 93.6801 4.65445 93.6247 3.16785C93.6191 3.12873 93.6191 3.08961 93.6191 3.05048C93.6191 1.5136 94.8607 0.261719 96.385 0.261719C97.9093 0.261719 99.1509 1.5136 99.1509 3.05048Z" fill="white"/>
<path d="M132.696 5.83926C134.223 5.83926 135.462 4.59069 135.462 3.05048C135.462 1.51029 134.223 0.261719 132.696 0.261719C131.167 0.261719 129.93 1.51029 129.93 3.05048C129.93 4.59069 131.167 5.83926 132.696 5.83926Z" fill="white"/>
</svg>
